<svg xmlns="http://www.w3.org/2000/svg" id="prefigure-hw1o-ellipse-motion-figure" viewBox="0 0 330 426">
  <defs>
    <clipPath id="prefigure-hw1o-ellipse-motion-clipPath-0">
      <rect x="5.0" y="5.0" width="320.0" height="416.0"/>
    </clipPath>
    <clipPath id="prefigure-hw1o-ellipse-motion-clipPath-1">
      <rect x="5.0" y="5.0" width="320.0" height="416.0"/>
    </clipPath>
    <marker id="prefigure-hw1o-ellipse-motion-arrow-head-end-3_None_24_60-blue" markerWidth="13.5" markerHeight="12.0" markerUnits="userSpaceOnUse" orient="auto-start-reverse" refX="9.8" refY="6.0">
      <path d="M 13.5 6.0L 0.0 12.0L 2.6 7.5L 2.6 4.5L 0.0 0.0Z" fill="blue" stroke="none"/>
    </marker>
    <marker id="prefigure-hw1o-ellipse-motion-arrow-head-end-3_None_24_60-blue-outline" markerWidth="17.5" markerHeight="16.0" markerUnits="userSpaceOnUse" orient="auto-start-reverse" refX="11.8" refY="8.0">
      <path d="M 16.3 9.8 L 2.8 15.8 A 2 2 0 0 1 0.0 14.0 L 0.0 2.0 A 2 2 0 0 1 2.8 0.2 L 16.3 6.2 A 2 2 0 0 1 16.3 9.8 Z" fill="white" stroke="none"/>
    </marker>
  </defs>
  <g id="prefigure-hw1o-ellipse-motion-grid-axes">
    <g id="prefigure-hw1o-ellipse-motion-grid" stroke="#ccc" stroke-width="1">
      <line x1="37.0" y1="421.0" x2="37.0" y2="5.0"/>
      <line x1="90.3" y1="421.0" x2="90.3" y2="5.0"/>
      <line x1="143.7" y1="421.0" x2="143.7" y2="5.0"/>
      <line x1="197.0" y1="421.0" x2="197.0" y2="5.0"/>
      <line x1="250.3" y1="421.0" x2="250.3" y2="5.0"/>
      <line x1="303.7" y1="421.0" x2="303.7" y2="5.0"/>
      <line x1="5.0" y1="378.3" x2="325.0" y2="378.3"/>
      <line x1="5.0" y1="325.0" x2="325.0" y2="325.0"/>
      <line x1="5.0" y1="271.7" x2="325.0" y2="271.7"/>
      <line x1="5.0" y1="218.3" x2="325.0" y2="218.3"/>
      <line x1="5.0" y1="165.0" x2="325.0" y2="165.0"/>
      <line x1="5.0" y1="111.7" x2="325.0" y2="111.7"/>
      <line x1="5.0" y1="58.3" x2="325.0" y2="58.3"/>
      <line x1="5.0" y1="5.0" x2="325.0" y2="5.0"/>
    </g>
    <g id="prefigure-hw1o-ellipse-motion-axes" stroke="black" stroke-width="2">
      <line id="prefigure-hw1o-ellipse-motion-line-14" x1="5.0" y1="378.3" x2="325.0" y2="378.3" stroke="black" stroke-width="2"/>
      <g>
        <line id="prefigure-hw1o-ellipse-motion-line-15" x1="37.0" y1="381.3" x2="37.0" y2="375.3"/>
        <line id="prefigure-hw1o-ellipse-motion-line-16" x1="143.7" y1="381.3" x2="143.7" y2="375.3"/>
      </g>
      <line id="prefigure-hw1o-ellipse-motion-line-17" x1="250.3" y1="421.0" x2="250.3" y2="5.0" stroke="black" stroke-width="2"/>
      <g>
        <line id="prefigure-hw1o-ellipse-motion-line-18" x1="247.3" y1="271.7" x2="253.3" y2="271.7"/>
        <line id="prefigure-hw1o-ellipse-motion-line-19" x1="247.3" y1="165.0" x2="253.3" y2="165.0"/>
        <line id="prefigure-hw1o-ellipse-motion-line-20" x1="247.3" y1="58.3" x2="253.3" y2="58.3"/>
      </g>
    </g>
    <g id="prefigure-hw1o-ellipse-motion-label-0" transform="translate(321.0,374.3) translate(-10.4,-8.2)">
      <g id="prefigure-hw1o-ellipse-motion-g-0">
        <svg xmlns:xlink="http://www.w3.org/1999/xlink" style="vertical-align: -0.200px" width="10.352px" height="8.200px" role="img" focusable="false" viewBox="0 -442 572 453" x="0.0" y="0.0">
          <defs>
            <path id="prefigure-hw1o-ellipse-motion-MJX-2-TEX-I-1D465" d="M52 289Q59 331 106 386T222 442Q257 442 286 424T329 379Q371 442 430 442Q467 442 494 420T522 361Q522 332 508 314T481 292T458 288Q439 288 427 299T415 328Q415 374 465 391Q454 404 425 404Q412 404 406 402Q368 386 350 336Q290 115 290 78Q290 50 306 38T341 26Q378 26 414 59T463 140Q466 150 469 151T485 153H489Q504 153 504 145Q504 144 502 134Q486 77 440 33T333 -11Q263 -11 227 52Q186 -10 133 -10H127Q78 -10 57 16T35 71Q35 103 54 123T99 143Q142 143 142 101Q142 81 130 66T107 46T94 41L91 40Q91 39 97 36T113 29T132 26Q168 26 194 71Q203 87 217 139T245 247T261 313Q266 340 266 352Q266 380 251 392T217 404Q177 404 142 372T93 290Q91 281 88 280T72 278H58Q52 284 52 289Z"/>
          </defs>
          <g stroke="currentColor" fill="currentColor" stroke-width="0" transform="scale(1,-1)">
            <g data-mml-node="math">
              <g data-mml-node="mi" data-semantic-type="identifier" data-semantic-role="latinletter" data-semantic-font="italic" data-semantic-annotation="clearspeak:simple" data-semantic-id="0" data-semantic-speech="x">
                <use data-c="1D465" xlink:href="#prefigure-hw1o-ellipse-motion-MJX-2-TEX-I-1D465"/>
              </g>
            </g>
          </g>
        </svg>
      </g>
    </g>
    <g id="prefigure-hw1o-ellipse-motion-label-1" transform="translate(254.3,9.0) translate(0.0,-0.0)">
      <g id="prefigure-hw1o-ellipse-motion-g-1">
        <svg xmlns:xlink="http://www.w3.org/1999/xlink" style="vertical-align: -3.712px" width="8.872px" height="11.712px" role="img" focusable="false" viewBox="0 -442 490 647" x="0.0" y="0.0">
          <defs>
            <path id="prefigure-hw1o-ellipse-motion-MJX-3-TEX-I-1D466" d="M21 287Q21 301 36 335T84 406T158 442Q199 442 224 419T250 355Q248 336 247 334Q247 331 231 288T198 191T182 105Q182 62 196 45T238 27Q261 27 281 38T312 61T339 94Q339 95 344 114T358 173T377 247Q415 397 419 404Q432 431 462 431Q475 431 483 424T494 412T496 403Q496 390 447 193T391 -23Q363 -106 294 -155T156 -205Q111 -205 77 -183T43 -117Q43 -95 50 -80T69 -58T89 -48T106 -45Q150 -45 150 -87Q150 -107 138 -122T115 -142T102 -147L99 -148Q101 -153 118 -160T152 -167H160Q177 -167 186 -165Q219 -156 247 -127T290 -65T313 -9T321 21L315 17Q309 13 296 6T270 -6Q250 -11 231 -11Q185 -11 150 11T104 82Q103 89 103 113Q103 170 138 262T173 379Q173 380 173 381Q173 390 173 393T169 400T158 404H154Q131 404 112 385T82 344T65 302T57 280Q55 278 41 278H27Q21 284 21 287Z"/>
          </defs>
          <g stroke="currentColor" fill="currentColor" stroke-width="0" transform="scale(1,-1)">
            <g data-mml-node="math">
              <g data-mml-node="mi" data-semantic-type="identifier" data-semantic-role="latinletter" data-semantic-font="italic" data-semantic-annotation="clearspeak:simple" data-semantic-id="0" data-semantic-speech="y">
                <use data-c="1D466" xlink:href="#prefigure-hw1o-ellipse-motion-MJX-3-TEX-I-1D466"/>
              </g>
            </g>
          </g>
        </svg>
      </g>
    </g>
    <g id="prefigure-hw1o-ellipse-motion-label-2" transform="translate(37.0,389.3) translate(-7.5,-0.0)">
      <g id="prefigure-hw1o-ellipse-motion-g-2">
        <svg xmlns:xlink="http://www.w3.org/1999/xlink" style="vertical-align: 0.000px" width="15.080px" height="12.256px" role="img" focusable="false" viewBox="0 -677 833 677" x="0.0" y="0.0">
          <defs>
            <path id="prefigure-hw1o-ellipse-motion-MJX-4-TEX-N-2D" d="M11 179V252H277V179H11Z"/>
            <path id="prefigure-hw1o-ellipse-motion-MJX-4-TEX-N-34" d="M462 0Q444 3 333 3Q217 3 199 0H190V46H221Q241 46 248 46T265 48T279 53T286 61Q287 63 287 115V165H28V211L179 442Q332 674 334 675Q336 677 355 677H373L379 671V211H471V165H379V114Q379 73 379 66T385 54Q393 47 442 46H471V0H462ZM293 211V545L74 212L183 211H293Z"/>
          </defs>
          <g stroke="currentColor" fill="currentColor" stroke-width="0" transform="scale(1,-1)">
            <g data-mml-node="math">
              <g data-mml-node="mtext" data-semantic-type="text" data-semantic-role="unknown" data-semantic-font="normal" data-semantic-annotation="clearspeak:unit" data-semantic-id="0" data-semantic-speech="hyphen 4">
                <use data-c="2D" xlink:href="#prefigure-hw1o-ellipse-motion-MJX-4-TEX-N-2D"/>
                <use data-c="34" xlink:href="#prefigure-hw1o-ellipse-motion-MJX-4-TEX-N-34" transform="translate(333,0)"/>
              </g>
            </g>
          </g>
        </svg>
      </g>
    </g>
    <g id="prefigure-hw1o-ellipse-motion-label-3" transform="translate(143.7,389.3) translate(-7.5,-0.0)">
      <g id="prefigure-hw1o-ellipse-motion-g-3">
        <svg xmlns:xlink="http://www.w3.org/1999/xlink" style="vertical-align: 0.000px" width="15.080px" height="12.056px" role="img" focusable="false" viewBox="0 -666 833 666" x="0.0" y="0.0">
          <defs>
            <path id="prefigure-hw1o-ellipse-motion-MJX-5-TEX-N-2D" d="M11 179V252H277V179H11Z"/>
            <path id="prefigure-hw1o-ellipse-motion-MJX-5-TEX-N-32" d="M109 429Q82 429 66 447T50 491Q50 562 103 614T235 666Q326 666 387 610T449 465Q449 422 429 383T381 315T301 241Q265 210 201 149L142 93L218 92Q375 92 385 97Q392 99 409 186V189H449V186Q448 183 436 95T421 3V0H50V19V31Q50 38 56 46T86 81Q115 113 136 137Q145 147 170 174T204 211T233 244T261 278T284 308T305 340T320 369T333 401T340 431T343 464Q343 527 309 573T212 619Q179 619 154 602T119 569T109 550Q109 549 114 549Q132 549 151 535T170 489Q170 464 154 447T109 429Z"/>
          </defs>
          <g stroke="currentColor" fill="currentColor" stroke-width="0" transform="scale(1,-1)">
            <g data-mml-node="math">
              <g data-mml-node="mtext" data-semantic-type="text" data-semantic-role="unknown" data-semantic-font="normal" data-semantic-annotation="clearspeak:unit" data-semantic-id="0" data-semantic-speech="hyphen 2">
                <use data-c="2D" xlink:href="#prefigure-hw1o-ellipse-motion-MJX-5-TEX-N-2D"/>
                <use data-c="32" xlink:href="#prefigure-hw1o-ellipse-motion-MJX-5-TEX-N-32" transform="translate(333,0)"/>
              </g>
            </g>
          </g>
        </svg>
      </g>
    </g>
    <g id="prefigure-hw1o-ellipse-motion-label-4" transform="translate(239.3,271.7) translate(-9.0,-6.0)">
      <g id="prefigure-hw1o-ellipse-motion-g-4">
        <svg xmlns:xlink="http://www.w3.org/1999/xlink" style="vertical-align: 0.000px" width="9.048px" height="12.056px" role="img" focusable="false" viewBox="0 -666 500 666" x="0.0" y="0.0">
          <defs>
            <path id="prefigure-hw1o-ellipse-motion-MJX-6-TEX-N-32" d="M109 429Q82 429 66 447T50 491Q50 562 103 614T235 666Q326 666 387 610T449 465Q449 422 429 383T381 315T301 241Q265 210 201 149L142 93L218 92Q375 92 385 97Q392 99 409 186V189H449V186Q448 183 436 95T421 3V0H50V19V31Q50 38 56 46T86 81Q115 113 136 137Q145 147 170 174T204 211T233 244T261 278T284 308T305 340T320 369T333 401T340 431T343 464Q343 527 309 573T212 619Q179 619 154 602T119 569T109 550Q109 549 114 549Q132 549 151 535T170 489Q170 464 154 447T109 429Z"/>
          </defs>
          <g stroke="currentColor" fill="currentColor" stroke-width="0" transform="scale(1,-1)">
            <g data-mml-node="math">
              <g data-mml-node="mtext" data-semantic-type="text" data-semantic-role="integer" data-semantic-font="normal" data-semantic-annotation="clearspeak:unit" data-semantic-id="0" data-semantic-speech="2">
                <use data-c="32" xlink:href="#prefigure-hw1o-ellipse-motion-MJX-6-TEX-N-32"/>
              </g>
            </g>
          </g>
        </svg>
      </g>
    </g>
    <g id="prefigure-hw1o-ellipse-motion-label-5" transform="translate(239.3,165.0) translate(-9.0,-6.1)">
      <g id="prefigure-hw1o-ellipse-motion-g-5">
        <svg xmlns:xlink="http://www.w3.org/1999/xlink" style="vertical-align: 0.000px" width="9.048px" height="12.256px" role="img" focusable="false" viewBox="0 -677 500 677" x="0.0" y="0.0">
          <defs>
            <path id="prefigure-hw1o-ellipse-motion-MJX-7-TEX-N-34" d="M462 0Q444 3 333 3Q217 3 199 0H190V46H221Q241 46 248 46T265 48T279 53T286 61Q287 63 287 115V165H28V211L179 442Q332 674 334 675Q336 677 355 677H373L379 671V211H471V165H379V114Q379 73 379 66T385 54Q393 47 442 46H471V0H462ZM293 211V545L74 212L183 211H293Z"/>
          </defs>
          <g stroke="currentColor" fill="currentColor" stroke-width="0" transform="scale(1,-1)">
            <g data-mml-node="math">
              <g data-mml-node="mtext" data-semantic-type="text" data-semantic-role="integer" data-semantic-font="normal" data-semantic-annotation="clearspeak:unit" data-semantic-id="0" data-semantic-speech="4">
                <use data-c="34" xlink:href="#prefigure-hw1o-ellipse-motion-MJX-7-TEX-N-34"/>
              </g>
            </g>
          </g>
        </svg>
      </g>
    </g>
    <g id="prefigure-hw1o-ellipse-motion-label-6" transform="translate(239.3,58.3) translate(-9.0,-6.2)">
      <g id="prefigure-hw1o-ellipse-motion-g-6">
        <svg xmlns:xlink="http://www.w3.org/1999/xlink" style="vertical-align: -0.400px" width="9.048px" height="12.456px" role="img" focusable="false" viewBox="0 -666 500 688" x="0.0" y="0.0">
          <defs>
            <path id="prefigure-hw1o-ellipse-motion-MJX-8-TEX-N-36" d="M42 313Q42 476 123 571T303 666Q372 666 402 630T432 550Q432 525 418 510T379 495Q356 495 341 509T326 548Q326 592 373 601Q351 623 311 626Q240 626 194 566Q147 500 147 364L148 360Q153 366 156 373Q197 433 263 433H267Q313 433 348 414Q372 400 396 374T435 317Q456 268 456 210V192Q456 169 451 149Q440 90 387 34T253 -22Q225 -22 199 -14T143 16T92 75T56 172T42 313ZM257 397Q227 397 205 380T171 335T154 278T148 216Q148 133 160 97T198 39Q222 21 251 21Q302 21 329 59Q342 77 347 104T352 209Q352 289 347 316T329 361Q302 397 257 397Z"/>
          </defs>
          <g stroke="currentColor" fill="currentColor" stroke-width="0" transform="scale(1,-1)">
            <g data-mml-node="math">
              <g data-mml-node="mtext" data-semantic-type="text" data-semantic-role="integer" data-semantic-font="normal" data-semantic-annotation="clearspeak:unit" data-semantic-id="0" data-semantic-speech="6">
                <use data-c="36" xlink:href="#prefigure-hw1o-ellipse-motion-MJX-8-TEX-N-36"/>
              </g>
            </g>
          </g>
        </svg>
      </g>
    </g>
  </g>
  <g id="prefigure-hw1o-ellipse-motion-curve">
    <path id="prefigure-hw1o-ellipse-motion-path-0" d="M 143.7 271.7 L 147.0 271.5 L 150.4 270.8 L 153.7 269.8 L 156.9 268.3 L 160.1 266.4 L 163.3 264.2 L 166.4 261.5 L 169.4 258.5 L 172.2 255.1 L 175.0 251.3 L 177.7 247.2 L 180.2 242.8 L 182.5 238.0 L 184.8 233.0 L 186.8 227.7 L 188.7 222.2 L 190.4 216.4 L 191.9 210.4 L 193.3 204.3 L 194.4 198.0 L 195.3 191.5 L 196.1 185.0 L 196.6 178.4 L 196.9 171.7 L 197.0 165.0 L 196.9 158.3 L 196.6 151.6 L 196.1 145.0 L 195.3 138.5 L 194.4 132.0 L 193.3 125.7 L 191.9 119.6 L 190.4 113.6 L 188.7 107.8 L 186.8 102.3 L 184.8 97.0 L 182.5 92.0 L 180.2 87.2 L 177.7 82.8 L 175.0 78.7 L 172.2 74.9 L 169.4 71.5 L 166.4 68.5 L 163.3 65.8 L 160.1 63.6 L 156.9 61.7 L 153.7 60.2 L 150.4 59.2 L 147.0 58.5 L 143.7 58.3 L 140.3 58.5 L 137.0 59.2 L 133.7 60.2 L 130.4 61.7 L 127.2 63.6 L 124.0 65.8 L 121.0 68.5 L 118.0 71.5 L 115.1 74.9 L 112.3 78.7 L 109.7 82.8 L 107.2 87.2 L 104.8 92.0 L 102.6 97.0 L 100.5 102.3 L 98.6 107.8 L 96.9 113.6 L 95.4 119.6 L 94.1 125.7 L 92.9 132.0 L 92.0 138.5 L 91.3 145.0 L 90.8 151.6 L 90.4 158.3 L 90.3 165.0 L 90.4 171.7 L 90.8 178.4 L 91.3 185.0 L 92.0 191.5 L 92.9 198.0 L 94.1 204.3 L 95.4 210.4 L 96.9 216.4 L 98.6 222.2 L 100.5 227.7 L 102.6 233.0 L 104.8 238.0 L 107.2 242.8 L 109.7 247.2 L 112.3 251.3 L 115.1 255.1 L 118.0 258.5 L 121.0 261.5 L 124.0 264.2 L 127.2 266.4 L 130.4 268.3 L 133.7 269.8 L 137.0 270.8 L 140.3 271.5 L 143.7 271.7" stroke="blue" stroke-width="3" fill="none" clip-path="url(#prefigure-hw1o-ellipse-motion-clipPath-1)"/>
    <path id="prefigure-hw1o-ellipse-motion-path-1" d="M 125.0 65.1 L 124.8 65.3 L 124.6 65.4 L 124.4 65.6 L 124.2 65.7 L 124.0 65.9 L 123.8 66.0 L 123.6 66.2 L 123.4 66.4 L 123.2 66.5 L 123.0 66.7 L 122.8 66.9 L 122.6 67.0 L 122.4 67.2 L 122.2 67.4 L 122.0 67.5 L 121.8 67.7 L 121.6 67.9 L 121.4 68.1 L 121.2 68.2 L 121.0 68.4 L 120.8 68.6 L 120.6 68.8 L 120.4 69.0 L 120.3 69.2 L 120.1 69.3 L 119.9 69.5 L 119.7 69.7 L 119.5 69.9 L 119.3 70.1 L 119.1 70.3 L 118.9 70.5 L 118.7 70.7 L 118.5 70.9 L 118.4 71.1 L 118.2 71.3 L 118.0 71.5 L 117.8 71.7 L 117.6 71.9 L 117.4 72.1 L 117.2 72.3 L 117.1 72.6 L 116.9 72.8 L 116.7 73.0 L 116.5 73.2 L 116.3 73.4 L 116.1 73.6 L 116.0 73.9 L 115.8 74.1 L 115.6 74.3 L 115.4 74.5 L 115.2 74.8 L 115.0 75.0 L 114.9 75.2 L 114.7 75.5 L 114.5 75.7 L 114.3 75.9 L 114.2 76.2 L 114.0 76.4 L 113.8 76.6 L 113.6 76.9 L 113.4 77.1 L 113.3 77.4 L 113.1 77.6 L 112.9 77.8 L 112.7 78.1 L 112.6 78.3 L 112.4 78.6 L 112.2 78.8 L 112.1 79.1 L 111.9 79.3 L 111.7 79.6 L 111.5 79.9 L 111.4 80.1 L 111.2 80.4 L 111.0 80.6 L 110.9 80.9 L 110.7 81.2 L 110.5 81.4 L 110.4 81.7 L 110.2 82.0 L 110.0 82.2 L 109.9 82.5 L 109.7 82.8 L 109.5 83.0 L 109.4 83.3 L 109.2 83.6 L 109.0 83.9 L 108.9 84.1 L 108.7 84.4 L 108.6 84.7 L 108.4 85.0 L 108.2 85.3 L 108.1 85.5 L 107.9 85.8 L 107.8 86.1 L 107.6 86.4 L 107.5 86.7 L 107.3 87.0 L 107.1 87.3 L 107.0 87.6" stroke="blue" stroke-width="3" fill="none" clip-path="url(#prefigure-hw1o-ellipse-motion-clipPath-1)" marker-end="url(#prefigure-hw1o-ellipse-motion-arrow-head-end-3_None_24_60-blue)"/>
  </g>
  <g id="prefigure-hw1o-ellipse-motion-center">
    <circle id="prefigure-hw1o-ellipse-motion-circle-0" cx="143.7" cy="165.0" r="3.5" stroke="black" stroke-width="2" fill="black"/>
    <g id="prefigure-hw1o-ellipse-motion-label-7" transform="translate(152.7,157.0) translate(0.0,-18.1)">
      <rect x="-6" y="-6" width="66.312" height="30.096" stroke="none" fill="white"/>
      <g id="prefigure-hw1o-ellipse-motion-g-7">
        <svg xmlns:xlink="http://www.w3.org/1999/xlink" style="vertical-align: -4.528px" width="54.312px" height="18.096px" role="img" focusable="false" viewBox="0 -750 3000.7 1000" x="0.0" y="0.0">
          <defs>
            <path id="prefigure-hw1o-ellipse-motion-MJX-9-TEX-N-28" d="M94 250Q94 319 104 381T127 488T164 576T202 643T244 695T277 729T302 750H315H319Q333 750 333 741Q333 738 316 720T275 667T226 581T184 443T167 250T184 58T225 -81T274 -167T316 -220T333 -241Q333 -250 318 -250H315H302L274 -226Q180 -141 137 -14T94 250Z"/>
            <path id="prefigure-hw1o-ellipse-motion-MJX-9-TEX-N-2212" d="M84 237T84 250T98 270H679Q694 262 694 250T679 230H98Q84 237 84 250Z"/>
            <path id="prefigure-hw1o-ellipse-motion-MJX-9-TEX-N-32" d="M109 429Q82 429 66 447T50 491Q50 562 103 614T235 666Q326 666 387 610T449 465Q449 422 429 383T381 315T301 241Q265 210 201 149L142 93L218 92Q375 92 385 97Q392 99 409 186V189H449V186Q448 183 436 95T421 3V0H50V19V31Q50 38 56 46T86 81Q115 113 136 137Q145 147 170 174T204 211T233 244T261 278T284 308T305 340T320 369T333 401T340 431T343 464Q343 527 309 573T212 619Q179 619 154 602T119 569T109 550Q109 549 114 549Q132 549 151 535T170 489Q170 464 154 447T109 429Z"/>
            <path id="prefigure-hw1o-ellipse-motion-MJX-9-TEX-N-2C" d="M78 35T78 60T94 103T137 121Q165 121 187 96T210 8Q210 -27 201 -60T180 -117T154 -158T130 -185T117 -194Q113 -194 104 -185T95 -172Q95 -168 106 -156T131 -126T157 -76T173 -3V9L172 8Q170 7 167 6T161 3T152 1T140 0Q113 0 96 17Z"/>
            <path id="prefigure-hw1o-ellipse-motion-MJX-9-TEX-N-34" d="M462 0Q444 3 333 3Q217 3 199 0H190V46H221Q241 46 248 46T265 48T279 53T286 61Q287 63 287 115V165H28V211L179 442Q332 674 334 675Q336 677 355 677H373L379 671V211H471V165H379V114Q379 73 379 66T385 54Q393 47 442 46H471V0H462ZM293 211V545L74 212L183 211H293Z"/>
            <path id="prefigure-hw1o-ellipse-motion-MJX-9-TEX-N-29" d="M60 749L64 750Q69 750 74 750H86L114 726Q208 641 251 514T294 250Q294 182 284 119T261 12T224 -76T186 -143T145 -194T113 -227T90 -246Q87 -249 86 -250H74Q66 -250 63 -250T58 -247T55 -238Q56 -237 66 -225Q221 -64 221 250T66 725Q56 737 55 738Q55 746 60 749Z"/>
          </defs>
          <g stroke="currentColor" fill="currentColor" stroke-width="0" transform="scale(1,-1)">
            <g data-mml-node="math" data-semantic-type="fenced" data-semantic-role="leftright" data-semantic-id="8" data-semantic-children="7" data-semantic-content="0,5" data-semantic-speech="left parenthesis negative 2 comma 4 right parenthesis">
              <g data-mml-node="mo" data-semantic-type="fence" data-semantic-role="open" data-semantic-id="0" data-semantic-parent="8" data-semantic-operator="fenced" data-semantic-speech="left parenthesis">
                <use data-c="28" xlink:href="#prefigure-hw1o-ellipse-motion-MJX-9-TEX-N-28"/>
              </g>
              <g data-mml-node="mrow" data-semantic-type="punctuated" data-semantic-role="sequence" data-semantic-id="7" data-semantic-children="6,3,4" data-semantic-content="3" data-semantic-parent="8" data-semantic-speech="negative 2 comma 4" transform="translate(389,0)">
                <g data-mml-node="mrow" data-semantic-type="prefixop" data-semantic-role="negative" data-semantic-annotation="clearspeak:simple" data-semantic-id="6" data-semantic-children="2" data-semantic-content="1" data-semantic-parent="7" data-semantic-speech="negative 2">
                  <g data-mml-node="mo" data-semantic-type="operator" data-semantic-role="subtraction" data-semantic-id="1" data-semantic-parent="6" data-semantic-operator="prefixop,−" data-semantic-speech="minus">
                    <use data-c="2212" xlink:href="#prefigure-hw1o-ellipse-motion-MJX-9-TEX-N-2212"/>
                  </g>
                  <g data-mml-node="mn" data-semantic-type="number" data-semantic-role="integer" data-semantic-font="normal" data-semantic-annotation="clearspeak:simple" data-semantic-id="2" data-semantic-parent="6" data-semantic-speech="2" transform="translate(778,0)">
                    <use data-c="32" xlink:href="#prefigure-hw1o-ellipse-motion-MJX-9-TEX-N-32"/>
                  </g>
                </g>
                <g data-mml-node="mo" data-semantic-type="punctuation" data-semantic-role="comma" data-semantic-id="3" data-semantic-parent="7" data-semantic-operator="punctuated" data-semantic-speech="comma" transform="translate(1278,0)">
                  <use data-c="2C" xlink:href="#prefigure-hw1o-ellipse-motion-MJX-9-TEX-N-2C"/>
                </g>
                <g data-mml-node="mn" data-semantic-type="number" data-semantic-role="integer" data-semantic-font="normal" data-semantic-annotation="clearspeak:simple" data-semantic-id="4" data-semantic-parent="7" data-semantic-speech="4" transform="translate(1722.7,0)">
                  <use data-c="34" xlink:href="#prefigure-hw1o-ellipse-motion-MJX-9-TEX-N-34"/>
                </g>
              </g>
              <g data-mml-node="mo" data-semantic-type="fence" data-semantic-role="close" data-semantic-id="5" data-semantic-parent="8" data-semantic-operator="fenced" data-semantic-speech="right parenthesis" transform="translate(2611.7,0)">
                <use data-c="29" xlink:href="#prefigure-hw1o-ellipse-motion-MJX-9-TEX-N-29"/>
              </g>
            </g>
          </g>
        </svg>
      </g>
    </g>
  </g>
  <g id="prefigure-hw1o-ellipse-motion-quarters">
    <circle id="prefigure-hw1o-ellipse-motion-circle-1" cx="143.7" cy="271.7" r="4" stroke="red" stroke-width="2" fill="red"/>
    <g id="prefigure-hw1o-ellipse-motion-label-8" transform="translate(143.7,283.7) translate(-19.9,-0.0)">
      <rect x="-6" y="-6" width="51.72" height="25.536" stroke="none" fill="white"/>
      <g id="prefigure-hw1o-ellipse-motion-g-8">
        <svg xmlns:xlink="http://www.w3.org/1999/xlink" style="vertical-align: -1.488px" width="39.720px" height="13.536px" role="img" focusable="false" viewBox="0 -666 2194.6 748" x="0.0" y="0.0">
          <defs>
            <path id="prefigure-hw1o-ellipse-motion-MJX-10-TEX-I-1D461" d="M26 385Q19 392 19 395Q19 399 22 411T27 425Q29 430 36 430T87 431H140L159 511Q162 522 166 540T173 566T179 586T187 603T197 615T211 624T229 626Q247 625 254 615T261 596Q261 589 252 549T232 470L222 433Q222 431 272 431H323Q330 424 330 420Q330 398 317 385H210L174 240Q135 80 135 68Q135 26 162 26Q197 26 230 60T283 144Q285 150 288 151T303 153H307Q322 153 322 145Q322 142 319 133Q314 117 301 95T267 48T216 6T155 -11Q125 -11 98 4T59 56Q57 64 57 83V101L92 241Q127 382 128 383Q128 385 77 385H26Z"/>
            <path id="prefigure-hw1o-ellipse-motion-MJX-10-TEX-N-3D" d="M56 347Q56 360 70 367H707Q722 359 722 347Q722 336 708 328L390 327H72Q56 332 56 347ZM56 153Q56 168 72 173H708Q722 163 722 153Q722 140 707 133H70Q56 140 56 153Z"/>
            <path id="prefigure-hw1o-ellipse-motion-MJX-10-TEX-N-30" d="M96 585Q152 666 249 666Q297 666 345 640T423 548Q460 465 460 320Q460 165 417 83Q397 41 362 16T301 -15T250 -22Q224 -22 198 -16T137 16T82 83Q39 165 39 320Q39 494 96 585ZM321 597Q291 629 250 629Q208 629 178 597Q153 571 145 525T137 333Q137 175 145 125T181 46Q209 16 250 16Q290 16 318 46Q347 76 354 130T362 333Q362 478 354 524T321 597Z"/>
          </defs>
          <g stroke="currentColor" fill="currentColor" stroke-width="0" transform="scale(1,-1)">
            <g data-mml-node="math" data-semantic-type="relseq" data-semantic-role="equality" data-semantic-id="3" data-semantic-children="0,2" data-semantic-content="1" data-semantic-speech="t equals 0">
              <g data-mml-node="mi" data-semantic-type="identifier" data-semantic-role="latinletter" data-semantic-font="italic" data-semantic-annotation="clearspeak:simple" data-semantic-id="0" data-semantic-parent="3" data-semantic-speech="t">
                <use data-c="1D461" xlink:href="#prefigure-hw1o-ellipse-motion-MJX-10-TEX-I-1D461"/>
              </g>
              <g data-mml-node="mo" data-semantic-type="relation" data-semantic-role="equality" data-semantic-id="1" data-semantic-parent="3" data-semantic-operator="relseq,=" data-semantic-speech="equals" transform="translate(638.8,0)">
                <use data-c="3D" xlink:href="#prefigure-hw1o-ellipse-motion-MJX-10-TEX-N-3D"/>
              </g>
              <g data-mml-node="mn" data-semantic-type="number" data-semantic-role="integer" data-semantic-font="normal" data-semantic-annotation="clearspeak:simple" data-semantic-id="2" data-semantic-parent="3" data-semantic-speech="0" transform="translate(1694.6,0)">
                <use data-c="30" xlink:href="#prefigure-hw1o-ellipse-motion-MJX-10-TEX-N-30"/>
              </g>
            </g>
          </g>
        </svg>
      </g>
    </g>
    <circle id="prefigure-hw1o-ellipse-motion-circle-2" cx="197.0" cy="165.0" r="4" stroke="red" stroke-width="2" fill="red"/>
    <g id="prefigure-hw1o-ellipse-motion-label-9" transform="translate(209.0,165.0) translate(0.0,-9.0)">
      <rect x="-6" y="-6" width="71.088" height="30.096" stroke="none" fill="white"/>
      <g id="prefigure-hw1o-ellipse-motion-g-9">
        <svg xmlns:xlink="http://www.w3.org/1999/xlink" style="vertical-align: -4.528px" width="59.088px" height="18.096px" role="img" focusable="false" viewBox="0 -750 3264.6 1000" x="0.0" y="0.0">
          <defs>
            <path id="prefigure-hw1o-ellipse-motion-MJX-11-TEX-I-1D461" d="M26 385Q19 392 19 395Q19 399 22 411T27 425Q29 430 36 430T87 431H140L159 511Q162 522 166 540T173 566T179 586T187 603T197 615T211 624T229 626Q247 625 254 615T261 596Q261 589 252 549T232 470L222 433Q222 431 272 431H323Q330 424 330 420Q330 398 317 385H210L174 240Q135 80 135 68Q135 26 162 26Q197 26 230 60T283 144Q285 150 288 151T303 153H307Q322 153 322 145Q322 142 319 133Q314 117 301 95T267 48T216 6T155 -11Q125 -11 98 4T59 56Q57 64 57 83V101L92 241Q127 382 128 383Q128 385 77 385H26Z"/>
            <path id="prefigure-hw1o-ellipse-motion-MJX-11-TEX-N-3D" d="M56 347Q56 360 70 367H707Q722 359 722 347Q722 336 708 328L390 327H72Q56 332 56 347ZM56 153Q56 168 72 173H708Q722 163 722 153Q722 140 707 133H70Q56 140 56 153Z"/>
            <path id="prefigure-hw1o-ellipse-motion-MJX-11-TEX-I-1D70B" d="M132 -11Q98 -11 98 22V33L111 61Q186 219 220 334L228 358H196Q158 358 142 355T103 336Q92 329 81 318T62 297T53 285Q51 284 38 284Q19 284 19 294Q19 300 38 329T93 391T164 429Q171 431 389 431Q549 431 553 430Q573 423 573 402Q573 371 541 360Q535 358 472 358H408L405 341Q393 269 393 222Q393 170 402 129T421 65T431 37Q431 20 417 5T381 -10Q370 -10 363 -7T347 17T331 77Q330 86 330 121Q330 170 339 226T357 318T367 358H269L268 354Q268 351 249 275T206 114T175 17Q164 -11 132 -11Z"/>
            <path id="prefigure-hw1o-ellipse-motion-MJX-11-TEX-N-2F" d="M423 750Q432 750 438 744T444 730Q444 725 271 248T92 -240Q85 -250 75 -250Q68 -250 62 -245T56 -231Q56 -221 230 257T407 740Q411 750 423 750Z"/>
            <path id="prefigure-hw1o-ellipse-motion-MJX-11-TEX-N-32" d="M109 429Q82 429 66 447T50 491Q50 562 103 614T235 666Q326 666 387 610T449 465Q449 422 429 383T381 315T301 241Q265 210 201 149L142 93L218 92Q375 92 385 97Q392 99 409 186V189H449V186Q448 183 436 95T421 3V0H50V19V31Q50 38 56 46T86 81Q115 113 136 137Q145 147 170 174T204 211T233 244T261 278T284 308T305 340T320 369T333 401T340 431T343 464Q343 527 309 573T212 619Q179 619 154 602T119 569T109 550Q109 549 114 549Q132 549 151 535T170 489Q170 464 154 447T109 429Z"/>
          </defs>
          <g stroke="currentColor" fill="currentColor" stroke-width="0" transform="scale(1,-1)">
            <g data-mml-node="math" data-semantic-type="relseq" data-semantic-role="equality" data-semantic-id="6" data-semantic-children="0,5" data-semantic-content="1" data-semantic-speech="t equals pi divided by 2">
              <g data-mml-node="mi" data-semantic-type="identifier" data-semantic-role="latinletter" data-semantic-font="italic" data-semantic-annotation="clearspeak:simple" data-semantic-id="0" data-semantic-parent="6" data-semantic-speech="t">
                <use data-c="1D461" xlink:href="#prefigure-hw1o-ellipse-motion-MJX-11-TEX-I-1D461"/>
              </g>
              <g data-mml-node="mo" data-semantic-type="relation" data-semantic-role="equality" data-semantic-id="1" data-semantic-parent="6" data-semantic-operator="relseq,=" data-semantic-speech="equals" transform="translate(638.8,0)">
                <use data-c="3D" xlink:href="#prefigure-hw1o-ellipse-motion-MJX-11-TEX-N-3D"/>
              </g>
              <g data-mml-node="mrow" data-semantic-type="infixop" data-semantic-role="division" data-semantic-id="5" data-semantic-children="2,4" data-semantic-content="3" data-semantic-parent="6" data-semantic-speech="pi divided by 2" transform="translate(1694.6,0)">
                <g data-mml-node="mi" data-semantic-type="identifier" data-semantic-role="greekletter" data-semantic-font="italic" data-semantic-annotation="clearspeak:simple" data-semantic-id="2" data-semantic-parent="5" data-semantic-speech="pi">
                  <use data-c="1D70B" xlink:href="#prefigure-hw1o-ellipse-motion-MJX-11-TEX-I-1D70B"/>
                </g>
                <g data-mml-node="TeXAtom" data-mjx-texclass="ORD" transform="translate(570,0)">
                  <g data-mml-node="mo" data-semantic-type="operator" data-semantic-role="division" data-semantic-id="3" data-semantic-parent="5" data-semantic-attributes="texclass:ORD" data-semantic-operator="infixop,/" data-semantic-speech="slash">
                    <use data-c="2F" xlink:href="#prefigure-hw1o-ellipse-motion-MJX-11-TEX-N-2F"/>
                  </g>
                </g>
                <g data-mml-node="mn" data-semantic-type="number" data-semantic-role="integer" data-semantic-font="normal" data-semantic-annotation="clearspeak:simple" data-semantic-id="4" data-semantic-parent="5" data-semantic-speech="2" transform="translate(1070,0)">
                  <use data-c="32" xlink:href="#prefigure-hw1o-ellipse-motion-MJX-11-TEX-N-32"/>
                </g>
              </g>
            </g>
          </g>
        </svg>
      </g>
    </g>
    <circle id="prefigure-hw1o-ellipse-motion-circle-3" cx="143.7" cy="58.3" r="4" stroke="red" stroke-width="2" fill="red"/>
    <g id="prefigure-hw1o-ellipse-motion-label-10" transform="translate(143.7,46.3) translate(-20.5,-12.8)">
      <rect x="-6" y="-6" width="52.984" height="24.816000000000003" stroke="none" fill="white"/>
      <g id="prefigure-hw1o-ellipse-motion-g-10">
        <svg xmlns:xlink="http://www.w3.org/1999/xlink" style="vertical-align: -1.488px" width="40.984px" height="12.816px" role="img" focusable="false" viewBox="0 -626 2264.6 708" x="0.0" y="0.0">
          <defs>
            <path id="prefigure-hw1o-ellipse-motion-MJX-12-TEX-I-1D461" d="M26 385Q19 392 19 395Q19 399 22 411T27 425Q29 430 36 430T87 431H140L159 511Q162 522 166 540T173 566T179 586T187 603T197 615T211 624T229 626Q247 625 254 615T261 596Q261 589 252 549T232 470L222 433Q222 431 272 431H323Q330 424 330 420Q330 398 317 385H210L174 240Q135 80 135 68Q135 26 162 26Q197 26 230 60T283 144Q285 150 288 151T303 153H307Q322 153 322 145Q322 142 319 133Q314 117 301 95T267 48T216 6T155 -11Q125 -11 98 4T59 56Q57 64 57 83V101L92 241Q127 382 128 383Q128 385 77 385H26Z"/>
            <path id="prefigure-hw1o-ellipse-motion-MJX-12-TEX-N-3D" d="M56 347Q56 360 70 367H707Q722 359 722 347Q722 336 708 328L390 327H72Q56 332 56 347ZM56 153Q56 168 72 173H708Q722 163 722 153Q722 140 707 133H70Q56 140 56 153Z"/>
            <path id="prefigure-hw1o-ellipse-motion-MJX-12-TEX-I-1D70B" d="M132 -11Q98 -11 98 22V33L111 61Q186 219 220 334L228 358H196Q158 358 142 355T103 336Q92 329 81 318T62 297T53 285Q51 284 38 284Q19 284 19 294Q19 300 38 329T93 391T164 429Q171 431 389 431Q549 431 553 430Q573 423 573 402Q573 371 541 360Q535 358 472 358H408L405 341Q393 269 393 222Q393 170 402 129T421 65T431 37Q431 20 417 5T381 -10Q370 -10 363 -7T347 17T331 77Q330 86 330 121Q330 170 339 226T357 318T367 358H269L268 354Q268 351 249 275T206 114T175 17Q164 -11 132 -11Z"/>
          </defs>
          <g stroke="currentColor" fill="currentColor" stroke-width="0" transform="scale(1,-1)">
            <g data-mml-node="math" data-semantic-type="relseq" data-semantic-role="equality" data-semantic-id="3" data-semantic-children="0,2" data-semantic-content="1" data-semantic-speech="t equals pi">
              <g data-mml-node="mi" data-semantic-type="identifier" data-semantic-role="latinletter" data-semantic-font="italic" data-semantic-annotation="clearspeak:simple" data-semantic-id="0" data-semantic-parent="3" data-semantic-speech="t">
                <use data-c="1D461" xlink:href="#prefigure-hw1o-ellipse-motion-MJX-12-TEX-I-1D461"/>
              </g>
              <g data-mml-node="mo" data-semantic-type="relation" data-semantic-role="equality" data-semantic-id="1" data-semantic-parent="3" data-semantic-operator="relseq,=" data-semantic-speech="equals" transform="translate(638.8,0)">
                <use data-c="3D" xlink:href="#prefigure-hw1o-ellipse-motion-MJX-12-TEX-N-3D"/>
              </g>
              <g data-mml-node="mi" data-semantic-type="identifier" data-semantic-role="greekletter" data-semantic-font="italic" data-semantic-annotation="clearspeak:simple" data-semantic-id="2" data-semantic-parent="3" data-semantic-speech="pi" transform="translate(1694.6,0)">
                <use data-c="1D70B" xlink:href="#prefigure-hw1o-ellipse-motion-MJX-12-TEX-I-1D70B"/>
              </g>
            </g>
          </g>
        </svg>
      </g>
    </g>
    <circle id="prefigure-hw1o-ellipse-motion-circle-4" cx="90.3" cy="165.0" r="4" stroke="red" stroke-width="2" fill="red"/>
    <g id="prefigure-hw1o-ellipse-motion-label-11" transform="translate(78.3,165.0) translate(-68.1,-9.0)">
      <rect x="-6" y="-6" width="80.136" height="30.096" stroke="none" fill="white"/>
      <g id="prefigure-hw1o-ellipse-motion-g-11">
        <svg xmlns:xlink="http://www.w3.org/1999/xlink" style="vertical-align: -4.528px" width="68.136px" height="18.096px" role="img" focusable="false" viewBox="0 -750 3764.6 1000" x="0.0" y="0.0">
          <defs>
            <path id="prefigure-hw1o-ellipse-motion-MJX-13-TEX-I-1D461" d="M26 385Q19 392 19 395Q19 399 22 411T27 425Q29 430 36 430T87 431H140L159 511Q162 522 166 540T173 566T179 586T187 603T197 615T211 624T229 626Q247 625 254 615T261 596Q261 589 252 549T232 470L222 433Q222 431 272 431H323Q330 424 330 420Q330 398 317 385H210L174 240Q135 80 135 68Q135 26 162 26Q197 26 230 60T283 144Q285 150 288 151T303 153H307Q322 153 322 145Q322 142 319 133Q314 117 301 95T267 48T216 6T155 -11Q125 -11 98 4T59 56Q57 64 57 83V101L92 241Q127 382 128 383Q128 385 77 385H26Z"/>
            <path id="prefigure-hw1o-ellipse-motion-MJX-13-TEX-N-3D" d="M56 347Q56 360 70 367H707Q722 359 722 347Q722 336 708 328L390 327H72Q56 332 56 347ZM56 153Q56 168 72 173H708Q722 163 722 153Q722 140 707 133H70Q56 140 56 153Z"/>
            <path id="prefigure-hw1o-ellipse-motion-MJX-13-TEX-N-33" d="M127 463Q100 463 85 480T69 524Q69 579 117 622T233 665Q268 665 277 664Q351 652 390 611T430 522Q430 470 396 421T302 350L299 348Q299 347 308 345T337 336T375 315Q457 262 457 175Q457 96 395 37T238 -22Q158 -22 100 21T42 130Q42 158 60 175T105 193Q133 193 151 175T169 130Q169 119 166 110T159 94T148 82T136 74T126 70T118 67L114 66Q165 21 238 21Q293 21 321 74Q338 107 338 175V195Q338 290 274 322Q259 328 213 329L171 330L168 332Q166 335 166 348Q166 366 174 366Q202 366 232 371Q266 376 294 413T322 525V533Q322 590 287 612Q265 626 240 626Q208 626 181 615T143 592T132 580H135Q138 579 143 578T153 573T165 566T175 555T183 540T186 520Q186 498 172 481T127 463Z"/>
            <path id="prefigure-hw1o-ellipse-motion-MJX-13-TEX-N-2062" d=""/>
            <path id="prefigure-hw1o-ellipse-motion-MJX-13-TEX-I-1D70B" d="M132 -11Q98 -11 98 22V33L111 61Q186 219 220 334L228 358H196Q158 358 142 355T103 336Q92 329 81 318T62 297T53 285Q51 284 38 284Q19 284 19 294Q19 300 38 329T93 391T164 429Q171 431 389 431Q549 431 553 430Q573 423 573 402Q573 371 541 360Q535 358 472 358H408L405 341Q393 269 393 222Q393 170 402 129T421 65T431 37Q431 20 417 5T381 -10Q370 -10 363 -7T347 17T331 77Q330 86 330 121Q330 170 339 226T357 318T367 358H269L268 354Q268 351 249 275T206 114T175 17Q164 -11 132 -11Z"/>
            <path id="prefigure-hw1o-ellipse-motion-MJX-13-TEX-N-2F" d="M423 750Q432 750 438 744T444 730Q444 725 271 248T92 -240Q85 -250 75 -250Q68 -250 62 -245T56 -231Q56 -221 230 257T407 740Q411 750 423 750Z"/>
            <path id="prefigure-hw1o-ellipse-motion-MJX-13-TEX-N-32" d="M109 429Q82 429 66 447T50 491Q50 562 103 614T235 666Q326 666 387 610T449 465Q449 422 429 383T381 315T301 241Q265 210 201 149L142 93L218 92Q375 92 385 97Q392 99 409 186V189H449V186Q448 183 436 95T421 3V0H50V19V31Q50 38 56 46T86 81Q115 113 136 137Q145 147 170 174T204 211T233 244T261 278T284 308T305 340T320 369T333 401T340 431T343 464Q343 527 309 573T212 619Q179 619 154 602T119 569T109 550Q109 549 114 549Q132 549 151 535T170 489Q170 464 154 447T109 429Z"/>
          </defs>
          <g stroke="currentColor" fill="currentColor" stroke-width="0" transform="scale(1,-1)">
            <g data-mml-node="math" data-semantic-type="relseq" data-semantic-role="equality" data-semantic-id="9" data-semantic-children="0,8" data-semantic-content="1" data-semantic-speech="t equals 3 pi divided by 2">
              <g data-mml-node="mi" data-semantic-type="identifier" data-semantic-role="latinletter" data-semantic-font="italic" data-semantic-annotation="clearspeak:simple" data-semantic-id="0" data-semantic-parent="9" data-semantic-speech="t">
                <use data-c="1D461" xlink:href="#prefigure-hw1o-ellipse-motion-MJX-13-TEX-I-1D461"/>
              </g>
              <g data-mml-node="mo" data-semantic-type="relation" data-semantic-role="equality" data-semantic-id="1" data-semantic-parent="9" data-semantic-operator="relseq,=" data-semantic-speech="equals" transform="translate(638.8,0)">
                <use data-c="3D" xlink:href="#prefigure-hw1o-ellipse-motion-MJX-13-TEX-N-3D"/>
              </g>
              <g data-mml-node="mrow" data-semantic-type="infixop" data-semantic-role="division" data-semantic-id="8" data-semantic-children="7,5" data-semantic-content="4" data-semantic-parent="9" data-semantic-speech="3 pi divided by 2" transform="translate(1694.6,0)">
                <g data-mml-node="mrow" data-semantic-type="infixop" data-semantic-role="implicit" data-semantic-annotation="clearspeak:simple;clearspeak:unit" data-semantic-id="7" data-semantic-children="2,3" data-semantic-content="6" data-semantic-parent="8" data-semantic-speech="3 pi">
                  <g data-mml-node="mn" data-semantic-type="number" data-semantic-role="integer" data-semantic-font="normal" data-semantic-annotation="clearspeak:simple" data-semantic-id="2" data-semantic-parent="7" data-semantic-speech="3">
                    <use data-c="33" xlink:href="#prefigure-hw1o-ellipse-motion-MJX-13-TEX-N-33"/>
                  </g>
                  <g data-mml-node="mo" data-semantic-type="operator" data-semantic-role="multiplication" data-semantic-id="6" data-semantic-parent="7" data-semantic-added="true" data-semantic-operator="infixop,⁢" data-semantic-speech="times" transform="translate(500,0)">
                    <use data-c="2062" xlink:href="#prefigure-hw1o-ellipse-motion-MJX-13-TEX-N-2062"/>
                  </g>
                  <g data-mml-node="mi" data-semantic-type="identifier" data-semantic-role="greekletter" data-semantic-font="italic" data-semantic-annotation="clearspeak:simple" data-semantic-id="3" data-semantic-parent="7" data-semantic-speech="pi" transform="translate(500,0)">
                    <use data-c="1D70B" xlink:href="#prefigure-hw1o-ellipse-motion-MJX-13-TEX-I-1D70B"/>
                  </g>
                </g>
                <g data-mml-node="TeXAtom" data-mjx-texclass="ORD" transform="translate(1070,0)">
                  <g data-mml-node="mo" data-semantic-type="operator" data-semantic-role="division" data-semantic-id="4" data-semantic-parent="8" data-semantic-attributes="texclass:ORD" data-semantic-operator="infixop,/" data-semantic-speech="slash">
                    <use data-c="2F" xlink:href="#prefigure-hw1o-ellipse-motion-MJX-13-TEX-N-2F"/>
                  </g>
                </g>
                <g data-mml-node="mn" data-semantic-type="number" data-semantic-role="integer" data-semantic-font="normal" data-semantic-annotation="clearspeak:simple" data-semantic-id="5" data-semantic-parent="8" data-semantic-speech="2" transform="translate(1570,0)">
                  <use data-c="32" xlink:href="#prefigure-hw1o-ellipse-motion-MJX-13-TEX-N-32"/>
                </g>
              </g>
            </g>
          </g>
        </svg>
      </g>
    </g>
  </g>
</svg>
